<svg version="1.2" xmlns="http://www.w3.org/2000/svg" viewBox="0 0 342 346" width="342" height="346">
	<title>Menu icons -off</title>
	<style>
		.s0 { fill: #9d9da0 } 
	</style>
	<g id="Menu icons -off">
		<path id="Shower" fill-rule="evenodd" class="s0" d="m69 171.7h246.5c11.3 0 20.5 9.2 20.5 20.6 0 11.3-9.2 20.5-20.5 20.5h-287.5c-11.4 0-20.6-9.2-20.6-20.5 0-11.4 9.2-20.6 20.6-20.6v-114.6c0-27.4 22.2-49.6 49.6-49.6 13.1 0 25.7 5.2 35 14.5l9.6 9.5c5.8-2.2 12.1-3.5 18.7-3.5 12.8 0 24.4 4.6 33.4 12.4 5.9-3.4 13.5-2.6 18.6 2.4 6 6 6 15.7 0 21.8l-66.8 66.7c-6 6-15.7 6-21.8 0-5-5.1-5.8-12.7-2.4-18.6-7.7-9-12.3-20.6-12.3-33.4 0-6.6 1.3-12.9 3.6-18.7l-9.6-9.6c-1.6-1.6-3.8-2.5-6-2.5-4.8 0-8.6 3.9-8.6 8.6zm246.5 61.6v10.2c0 18.3-8 34.7-20.6 46v25.9c0 11.4-9.2 20.5-20.5 20.5-11.4 0-20.5-9.1-20.5-20.5v-10.3h-164.3v10.3c0 11.4-9.2 20.5-20.6 20.5-11.3 0-20.5-9.1-20.5-20.5v-25.9c-12.6-11.3-20.5-27.7-20.5-46v-10.2z"/>
	</g>
</svg>